<?xml version="1.0" encoding="utf-8"?>
<!-- Generator: Adobe Illustrator 15.0.0, SVG Export Plug-In . SVG Version: 6.00 Build 0)  -->
<!DOCTYPE svg PUBLIC "-//W3C//DTD SVG 1.1//EN" "http://www.w3.org/Graphics/SVG/1.1/DTD/svg11.dtd">
<svg version="1.1"
	 id="Layer_1" xmlns:rdf="http://www.w3.org/1999/02/22-rdf-syntax-ns#" xmlns:cc="http://creativecommons.org/ns#" xmlns:dc="http://purl.org/dc/elements/1.1/"
	 xmlns="http://www.w3.org/2000/svg" xmlns:xlink="http://www.w3.org/1999/xlink" x="0px" y="0px" width="100px" height="100px"
	 viewBox="0 0 100 100" enable-background="new 0 0 100 100" xml:space="preserve">
<path fill="#FFFFFF" d="M26.883,10.912c-2.756,0-4.953,0.157-6.607,0.486c-1.654,0.332-3.05,0.899-4.208,1.669
	c-1.516,0.966-2.579,2.311-3.199,4.035c-0.619,1.723-0.94,4.683-0.94,8.903v10.084c0,4.217-0.743,7.172-2.26,8.868
	c-1.516,1.695-4.13,2.539-7.825,2.539c-0.193,0-0.489-0.007-0.904-0.035c-0.413-0.028-0.753-0.034-0.974-0.034v5.25
	c0.221,0,0.561-0.008,0.974-0.035c0.415-0.027,0.711-0.066,0.904-0.07c3.695,0.004,6.31,0.857,7.825,2.541
	c1.517,1.68,2.26,4.607,2.26,8.797v10.084c0,4.109,0.321,7.07,0.94,8.834c0.62,1.764,1.683,3.109,3.199,4.104
	c1.158,0.771,2.575,1.336,4.242,1.67c1.668,0.328,3.844,0.486,6.573,0.486h1.46v-5.146h-1.599c-3.475,0-5.825-0.666-7.025-1.949
	c-1.199-1.283-1.809-3.961-1.809-8.066V63.91c0-4.576-0.574-7.82-1.775-9.738c-1.197-1.916-3.338-3.275-6.398-4.104
	c3.061-0.852,5.201-2.256,6.398-4.172c1.201-1.914,1.775-5.16,1.775-9.737v-9.98c0-4.136,0.623-6.877,1.809-8.173
	c1.185-1.294,3.445-1.946,6.781-1.946c0.192,0,0.489,0.042,0.903,0.069c0.413,0.028,0.719,0.035,0.939,0.035v-5.251H26.883
	L26.883,10.912z M71.588,10.912v5.148h1.635c3.445,0,5.775,0.671,6.988,1.98c1.213,1.311,1.809,4.031,1.809,8.138v9.98
	c0,4.578,0.609,7.823,1.809,9.737c1.197,1.917,3.305,3.321,6.363,4.172c-3.059,0.829-5.166,2.188-6.363,4.104
	c-1.199,1.918-1.809,5.162-1.809,9.738v9.91c0,4.164-0.607,6.934-1.809,8.244c-1.201,1.309-3.438,1.945-6.746,1.945
	c-0.191,0-0.49-0.006-0.904-0.033c-0.414-0.029-0.752-0.035-0.973-0.035v5.146h1.705c2.811,0,5.027-0.135,6.641-0.453
	c1.611-0.316,2.959-0.846,4.033-1.564c1.488-0.99,2.523-2.352,3.131-4.104c0.605-1.752,0.904-4.754,0.904-8.973V63.979
	c0-4.188,0.766-7.123,2.295-8.832c1.529-1.711,4.172-2.57,7.895-2.574c0.193,0.004,0.488,0.043,0.904,0.07
	c0.412,0.027,0.717,0.035,0.938,0.035v-5.25c-0.221,0-0.525,0.006-0.938,0.034c-0.416,0.027-0.711,0.035-0.904,0.035
	c-3.723,0-6.365-0.866-7.895-2.573c-1.529-1.709-2.295-4.644-2.295-8.834V26.005c0-4.19-0.299-7.167-0.904-8.903
	c-0.607-1.738-1.643-3.069-3.131-4.035c-1.156-0.744-2.596-1.29-4.277-1.634c-1.68-0.345-3.885-0.522-6.641-0.522H71.588z
	 M37.292,17.336c-2.989,0-5.443,2.457-5.443,5.446c0,2.485,1.7,4.595,3.991,5.237V71.98c-2.291,0.641-3.991,2.752-3.991,5.238
	c0,2.988,2.455,5.443,5.443,5.443c2.989,0,5.442-2.455,5.442-5.443c0-2.467-1.672-4.563-3.934-5.223
	c0.259-3.676,1.483-5.207,3.238-6.111c1.946-1,4.934-1.084,8.108-1.084c3.173,0,6.529,0.088,9.359-1.367
	c2.516-1.293,4.266-3.955,4.584-8.178c2.328-0.617,4.063-2.744,4.063-5.256c0-2.486-1.699-4.596-3.99-5.238v-3.133
	c2.291-0.643,3.99-2.752,3.99-5.239c0-2.487-1.699-4.597-3.99-5.238v-3.132c2.291-0.643,3.99-2.752,3.99-5.237
	c0-2.989-2.455-5.446-5.443-5.446c-2.482,0-4.588,1.698-5.234,3.983l-8.1,0.021v-1.702l-2.722,1.569l-2.721,1.574l2.721,1.571
	l2.722,1.571v-1.68l8.094-0.023c0.508,1.833,1.959,3.287,3.791,3.799v3.132c-2.291,0.641-3.994,2.751-3.994,5.238
	c0,2.486,1.703,4.596,3.994,5.239v3.133c-2.291,0.642-3.994,2.751-3.994,5.238c0,2.465,1.674,4.565,3.936,5.225
	c-0.23,3.391-1.377,4.777-3.023,5.627c-1.885,0.971-4.855,1.045-8.031,1.045c-3.179,0-6.567-0.072-9.436,1.404
	c-0.719,0.371-1.381,0.848-1.969,1.439V28.019c2.292-0.643,3.992-2.752,3.992-5.237C42.734,19.792,40.281,17.336,37.292,17.336z
	 M37.292,20.241c1.42,0,2.539,1.12,2.539,2.541c0,1.419-1.119,2.537-2.539,2.537c-1.419,0-2.541-1.118-2.541-2.537
	C34.751,21.36,35.873,20.241,37.292,20.241z M62.709,20.241c1.422,0,2.541,1.12,2.541,2.541c0,1.419-1.119,2.537-2.541,2.537
	c-1.42,0-2.539-1.118-2.539-2.537C60.17,21.36,61.289,20.241,62.709,20.241z M62.709,33.849c1.422,0,2.541,1.12,2.541,2.541
	c0,1.42-1.119,2.541-2.541,2.541c-1.42,0-2.539-1.121-2.539-2.541C60.17,34.969,61.289,33.849,62.709,33.849z M62.709,47.459
	c1.422,0,2.541,1.12,2.541,2.541c0,1.42-1.119,2.542-2.541,2.542c-1.42,0-2.539-1.121-2.539-2.542
	C60.17,48.579,61.289,47.459,62.709,47.459z M37.292,74.68c1.42,0,2.539,1.119,2.539,2.539c0,1.418-1.119,2.541-2.539,2.541
	c-1.419,0-2.541-1.123-2.541-2.541C34.751,75.799,35.873,74.68,37.292,74.68z"/>
</svg>
